<svg width="118" height="10" fill="none" xmlns="http://www.w3.org/2000/svg">
  <rect x="-.5" y=".5" width="9" height="9" rx="1.5" transform="matrix(-1 0 0 1 9 0)" fill="#224463" stroke="#224463" />
  <rect x="-.5" y=".5" width="9" height="9" rx="1.5" transform="matrix(-1 0 0 1 21 0)" stroke="#224463"
    fill="#224463" />
  <rect x="-.5" y=".5" width="9" height="9" rx="1.5" transform="matrix(-1 0 0 1 33 0)" stroke="#224463"
    fill="#224463" />
  <rect x="-.5" y=".5" width="9" height="9" rx="1.5" transform="matrix(-1 0 0 1 45 0)" stroke="#224463"
    fill="#224463" />
  <rect x="-.5" y=".5" width="9" height="9" rx="1.5" transform="matrix(-1 0 0 1 57 0)" stroke="#224463" />
  <rect x="-.5" y=".5" width="9" height="9" rx="1.5" transform="matrix(-1 0 0 1 69 0)" stroke="#224463" />
  <rect x="-.5" y=".5" width="9" height="9" rx="1.5" transform="matrix(-1 0 0 1 81 0)" stroke="#224463" />
  <rect x="-.5" y=".5" width="9" height="9" rx="1.5" transform="matrix(-1 0 0 1 93 0)" stroke="#224463" />
  <rect x="-.5" y=".5" width="9" height="9" rx="1.5" transform="matrix(-1 0 0 1 105 0)" stroke="#224463" />
  <rect x="-.5" y=".5" width="9" height="9" rx="1.5" transform="matrix(-1 0 0 1 117 0)" stroke="#224463" />
</svg>